PathFileType	3	(X/Y/Z)	D:\Vicon Database\Healthy Subjects\S0040\Jan. 30, 2020\Force Plate Walk 2.trc
DataRate	CameraRate	NumFrames	NumMarkers	Units	OrigDataRate	OrigDataStartFrame	OrigNumFrames
100.0	100.0	4	53	mm	100.0	344	306	
Frame#	Time	right_foot_cluster2			right_foot_cluster3			sternum_cluster1			sternum_cluster2			sternum_cluster3			left_asis			right_asis			left_psis			right_psis			sacrum_cluster1			sacrum_cluster2			sacrum_cluster3			left_lat_femoral_epicondyle			left_anterior_thigh15			left_anterior_thigh25			left_anterior_thigh50			left_lateral_thigh25			left_lateral_thigh50			left_thigh_cluster1			left_thigh_cluster2			left_thigh_cluster3			left_fibular_head			left_tibial_tuberosity			left_anterior_shank30			left_lateral_malleolus			left_shank_cluster1			left_shank_cluster2			left_shank_cluster3			left_heel			left_metatarsal2			left_foot_cluster1			left_foot_cluster2			left_foot_cluster3			right_lat_femoral_epicondyle			right_anterior_thigh15			right_anterior_thigh25			right_anterior_thigh50			right_lateral_thigh25			right_lateral_thigh50			right_thigh_cluster1			right_thigh_cluster2			right_thigh_cluster3			right_fibular_head			right_tibial_tuberosity			right_lateral_distal_shank			right_anterior_shank30			right_lateral_malleolus			right_shank_cluster1			right_shank_cluster2			right_shank_cluster3			right_heel			right_metatarsal2			right_foot_cluster1			
		X1	Y1	Z1	X2	Y2	Z2	X3	Y3	Z3	X4	Y4	Z4	X5	Y5	Z5	X6	Y6	Z6	X7	Y7	Z7	X8	Y8	Z8	X9	Y9	Z9	X10	Y10	Z10	X11	Y11	Z11	X12	Y12	Z12	X13	Y13	Z13	X14	Y14	Z14	X15	Y15	Z15	X16	Y16	Z16	X17	Y17	Z17	X18	Y18	Z18	X19	Y19	Z19	X20	Y20	Z20	X21	Y21	Z21	X22	Y22	Z22	X23	Y23	Z23	X24	Y24	Z24	X25	Y25	Z25	X26	Y26	Z26	X27	Y27	Z27	X28	Y28	Z28	X29	Y29	Z29	X30	Y30	Z30	X31	Y31	Z31	X32	Y32	Z32	X33	Y33	Z33	X34	Y34	Z34	X35	Y35	Z35	X36	Y36	Z36	X37	Y37	Z37	X38	Y38	Z38	X39	Y39	Z39	X40	Y40	Z40	X41	Y41	Z41	X42	Y42	Z42	X43	Y43	Z43	X44	Y44	Z44	X45	Y45	Z45	X46	Y46	Z46	X47	Y47	Z47	X48	Y48	Z48	X49	Y49	Z49	X50	Y50	Z50	X51	Y51	Z51	X52	Y52	Z52	X53	Y53	Z53	
344	3.43	2202.967	193.9222	-155.84535	2203.3687	193.56737	-193.33652	2551.4653	1419.1689	-74.777191	2542.1479	1390.4415	-67.31485	2547.9424	1392.4879	-104.96999	2586.1287	1042.4497	51.976192	2594.3096	1057.2814	-198.58914	2752.2324	1070.4448	1.4420586	2760.0901	1069.6785	-115.72895	2763.5278	1126.4716	-63.216045	2770.5923	1100.8191	-74.143578	2770.6223	1096.2018	-35.130451	2813.0049	554.82605	67.967583	2692.8875	593.26892	18.516813	2638.9331	667.34784	36.80529	2592.4951	800.51727	59.222214	2754.6741	696.59698	91.163177	2694.623	830.27484	119.59587	2715.249	788.95526	124.34431	2726.8894	761.95593	120.63764	2689.2048	758.79474	125.22735	2839.7949	477.26849	73.464745	2791.822	448.50256	20.134489	2904.0193	222.23116	5.9034362	2993.7405	132.34329	31.870239	2810.7778	397.62534	-8.9624519	2816.0713	370.70682	-0.48701537	2830.3091	376.31027	-36.45425	3077.1216	114.13704	-0.98656362	2863.7222	63.1819	-4.8827968	2910.4875	124.79793	2.3574829	2891.4575	102.60883	11.792026	2886.3286	107.85273	-25.973921	2472.1042	542.24548	-214.84166	2430.5078	649.76428	-156.39883	2446.9636	727.94873	-157.76268	2498.2429	844.72217	-166.15218	2538.386	684.92938	-244.04176	2596.1455	822.19025	-266.92017	2582.3716	770.78094	-272.64673	2561.708	749.95355	-268.96356	2596.8777	734.97223	-262.83884	2452.8333	479.90302	-218.75034	2396.9929	493.37192	-173.99332	2349.6726	229.57954	-212.93394	2313.4976	261.70407	-167.40909	2295.8433	129.49873	-199.3302	2380.1689	430.75089	-122.00372	2373.3665	402.92081	-115.03128	2352.0815	411.21622	-144.03027	2339.9695	59.018242	-162.35164	2159.2317	182.26477	-163.1017	2230.7827	193.34097	-165.83876
345	3.44	2188.6638	190.93425	-157.00117	2189.5652	189.87245	-194.48233	2536.4868	1416.851	-75.730316	2527.0276	1388.2289	-68.342972	2532.7412	1390.3373	-106.02055	2570.2598	1040.2903	51.026817	2577.9343	1055.2913	-199.705	2736.1833	1067.828	-0.23974563	2743.8306	1067.1205	-117.32307	2747.5769	1123.9954	-64.810112	2754.2512	1098.0554	-75.843193	2754.5625	1093.5554	-36.71492	2799.4651	554.01831	67.014099	2678.8982	591.21313	18.787477	2625.9001	664.95544	36.907223	2577.3938	798.33594	59.20789	2740.6958	695.53864	90.208809	2680.1101	828.8714	118.32168	2700.7417	787.58661	123.08721	2712.7817	760.92072	119.58244	2675.1748	757.59283	124.56771	2827.2932	476.95895	73.242271	2779.884	446.97357	20.085127	2897.8213	223.44736	6.2511926	2989.8962	135.67189	32.530392	2800.5251	396.66095	-9.5574617	2807.3984	369.4841	-0.45109582	2820.4082	375.30948	-36.505642	3073.7773	119.87109	-0.51143849	2862.1829	62.358421	-4.691803	2906.875	125.38342	2.9735804	2888.26	102.56744	12.348331	2883.1504	107.59077	-25.511833	2454.8586	540.70752	-215.26549	2412.9807	649.47534	-158.0558	2429.9868	726.8808	-158.98996	2481.531	843.57849	-167.16411	2520.0635	684.01733	-244.31062	2578.2925	821.06299	-268.63181	2564.3682	769.59039	-274.48367	2543.6748	749.0448	-270.99792	2578.6023	733.75818	-264.77567	2436.2529	477.5845	-218.79291	2380.0046	491.40518	-175.0295	2334.9829	226.46558	-211.82486	2298.0623	258.70288	-167.06932	2282.022	125.97369	-197.96144	2362.407	429.3696	-122.43994	2356.3347	400.73901	-115.53091	2335.0857	408.79477	-144.78073	2325.2573	55.652523	-159.56947	2144.9126	179.19002	-164.59029	2216.4863	190.13849	-166.47736
346	3.45	2176.6511	186.0166	-156.99419	2178.1099	184.81096	-194.45203	2521.3608	1414.868	-76.860687	2511.7078	1386.3844	-69.375046	2517.3276	1388.5018	-107.06023	2554.3643	1038.1396	49.728931	2561.0735	1053.58	-200.86617	2719.8037	1065.4362	-1.9262296	2727.146	1064.7048	-119.00066	2731.2334	1121.5176	-66.466225	2737.7776	1095.6016	-77.581512	2738.134	1091.0199	-38.422352	2784.8884	552.97693	66.351593	2663.844	589.17841	19.042212	2610.8853	662.81311	37.508034	2561.7012	796.51343	59.176441	2725.9524	694.51501	89.288345	2665.0703	827.73773	117.10761	2685.8403	786.70544	122.13707	2698.0447	759.91516	118.42471	2660.4773	756.55304	123.76188	2813.7378	476.43707	72.843704	2767.135	445.16574	19.578386	2891.0413	224.91647	6.5612831	2985.4351	139.37184	33.392357	2789.7593	394.52121	-9.346117	2797.5298	367.89413	-0.64767373	2809.0784	374.6344	-36.4995	3069.7058	126.50916	-0.1098009	2860.335	61.585495	-4.2718062	2902.6572	126.03349	3.7385077	2884.4956	102.88526	13.126123	2879.6526	107.36449	-24.90217	2437.1516	539.14099	-215.66275	2395.418	649.42841	-160.22112	2412.9194	726.03888	-160.4045	2464.8137	842.29169	-167.9924	2501.075	683.13062	-246.19737	2560.4299	820.07098	-270.6904	2546.1555	768.09753	-276.40756	2525.3999	747.66406	-272.81464	2560.1333	732.29749	-266.09204	2419.6223	475.19754	-218.81599	2362.804	489.04544	-175.81082	2322.5483	222.47668	-210.62241	2284.458	254.59131	-166.66214	2271.2197	121.52369	-196.6118	2346.1101	426.02252	-123.00539	2339.9646	398.06171	-116.0264	2318.6809	405.64255	-145.48561	2314.1316	51.758453	-156.116	2133.1104	173.94391	-165.40886	2204.6423	184.99573	-166.0677
347	3.46	2166.6282	179.46349	-156.29297	2168.804	178.34241	-193.72728	2506.2532	1413.5083	-77.954422	2496.395	1384.9481	-70.503418	2501.9761	1387.0819	-108.20868	2537.7666	1036.3879	48.403435	2543.8154	1052.1301	-202.36465	2703.0137	1063.2048	-3.6751354	2709.937	1062.458	-120.67841	2714.5354	1119.0857	-68.169502	2721.4421	1093.7461	-79.365356	2721.9272	1089.0376	-40.09095	2769.1499	551.82123	65.86657	2647.406	587.32227	19.57197	2593.3108	661.39795	38.434689	2545.1143	795.047	59.065536	2710.3584	693.36804	88.327744	2649.2708	826.39563	115.72535	2670.5876	785.81799	120.65714	2682.6624	758.92505	117.23103	2644.9758	755.61688	123.15205	2798.9624	475.88593	72.637131	2752.72	443.19809	19.45916	2883.3997	226.6158	6.7998877	2980.2227	143.44052	34.286568	2776.657	393.44189	-9.2324209	2785.532	366.6803	-0.6523177	2797.2197	373.60977	-36.508472	3064.814	133.95148	0.25398475	2858.395	60.477047	-3.9387872	2897.6755	126.577	4.5396442	2881.5466	101.76595	13.223733	2875.5862	107.09531	-24.185886	2419.3599	537.41022	-216.14766	2377.5161	649.58734	-162.66193	2395.8362	725.36591	-162.09956	2447.9822	840.93695	-168.93683	2482.3821	682.02557	-247.46196	2542.5161	818.80219	-272.58765	2528.0869	766.57141	-278.55515	2507.1597	746.3056	-274.68741	2541.6194	730.54224	-267.68643	2403.1467	472.79062	-218.95482	2345.7471	486.3345	-176.73799	2312.1987	217.97017	-209.00691	2272.6851	249.49597	-166.12775	2262.7859	116.39966	-195.01517	2329.5225	423.07162	-123.53944	2323.7188	394.93158	-116.23746	2303.2717	401.38956	-146.3219	2307.2876	48.796268	-153.58333	2123.4199	166.35738	-165.43192	2194.9771	179.27791	-164.96889
